<svg viewBox="0 0 1366 768" xmlns="http://www.w3.org/2000/svg" data-name="Layer 1" id="Layer_1">
  <path d="M939.39,310.56c0,15.96-7.98,26.61-13.3,42.57-2.66,10.64-7.98,26.61,2.66,31.93,5.32,2.66,13.3,5.32,18.62,5.32,0-2.66-2.66-5.32-2.66-10.64,0-7.98,0-13.3,2.66-18.62v-2.66s2.66,0,2.66,2.66c2.66,2.66,2.66,7.98,2.66,10.64,0,5.32,2.66,10.64,7.98,13.3h5.32c13.3-7.98,13.3-26.61,13.3-39.91-2.66-23.94-13.3-45.23-31.93-55.87-2.66,0-2.66-2.66-2.66,0v2.66c2.66,5.32,2.66,7.98,2.66,13.3q-7.98,2.66-7.98,5.32Z"></path>
  <g>
    <path d="M88.03,443.58c0-10.64,2.66-18.62,5.32-21.28-2.66-7.98-2.66-13.3-2.66-18.62,0-87.8,170.27-133.03,276.69-133.03,50.55,0,138.35,10.64,188.9,31.93,2.66,2.66,2.66,5.32,2.66,10.64,0,2.66,0,5.32-2.66,7.98,0,2.66,2.66,5.32,2.66,7.98,0,7.98-5.32,21.28-13.3,31.93,0,47.89,10.64,93.12,13.3,98.44,2.66,7.98,10.64,7.98,10.64,10.64s-2.66,2.66-2.66,2.66c-13.3,7.98-23.94,18.62-34.59,18.62-13.3,0-15.96-10.64-15.96-29.27s0-45.23,2.66-69.17c-55.87,47.89-159.63,101.1-295.32,101.1-50.55,0-135.69-5.32-135.69-50.55ZM135.92,448.9c26.61,7.98,63.85,10.64,90.46,10.64,90.46,0,215.5-26.61,287.33-79.82,2.66-29.27,2.66-55.87,7.98-71.83-37.25-10.64-82.48-13.3-114.4-13.3-58.53,0-162.29,21.28-223.48,53.21-58.53,31.93-85.14,69.17-85.14,77.15s29.27,21.28,37.25,23.94ZM550.96,318.54q-2.66-2.66-5.32-2.66c-2.66,10.64-2.66,21.28-2.66,31.93,5.32-10.64,7.98-21.28,7.98-29.27Z"></path>
    <path d="M572.24,414.32c0-7.98,18.62-10.64,26.61-10.64,26.61,0,31.93,37.25,31.93,50.55,7.98-7.98,23.94-31.93,31.93-37.25,5.32-10.64,13.3-13.3,23.94-13.3,13.3,0,23.94,2.66,45.23,42.57,10.64-15.96,15.96-26.61,23.94-26.61,2.66-7.98,7.98-13.3,18.62-13.3,31.93,0,37.25,53.21,74.49,53.21,13.3,0,26.61-7.98,26.61-7.98,0,0,2.66,2.66,2.66,5.32,0,18.62-31.93,31.93-47.89,31.93-34.59,0-53.21-42.57-71.83-63.85-2.66,2.66-13.3,18.62-21.28,34.59,5.32,7.98,7.98,18.62,7.98,21.28s-7.98,5.32-13.3,5.32c-23.94,0-55.87-53.21-63.85-61.19-31.93,37.25-31.93,58.53-42.57,61.19h-2.66c-5.32,0-18.62-2.66-21.28-10.64-2.66-7.98-2.66-42.57-13.3-53.21-2.66-2.66-7.98-2.66-15.96-2.66,2.66-2.66,0-2.66,0-5.32Z"></path>
    <path d="M888.85,435.6c0-21.28,37.25-23.94,53.21-23.94,10.64,0,53.21,2.66,53.21,18.62q0,2.66-2.66,5.32c5.32,0,7.98,2.66,7.98,7.98,0,7.98-7.98,13.3-13.3,15.96,0,7.98,7.98,7.98,10.64,7.98,5.32,0,10.64-2.66,15.96-2.66,2.66,0,5.32,2.66,5.32,2.66l-2.66,2.66c-10.64,7.98-21.28,18.62-26.61,18.62-7.98,0-13.3-10.64-13.3-23.94-21.28,13.3-47.89,23.94-63.85,23.94s-26.61-7.98-26.61-21.28c0-5.32,2.66-10.64,7.98-15.96,0-2.66-5.32-7.98-5.32-15.96ZM910.13,454.22c0,5.32,7.98,7.98,23.94,7.98,7.98,0,37.25-2.66,53.21-13.3,2.66-2.66,2.66-7.98,2.66-7.98-7.98-2.66-13.3-2.66-21.28-2.66-26.61,0-58.53,7.98-58.53,15.96Z"></path>
    <path d="M1019.21,424.96c0-7.98,21.28-13.3,26.61-13.3,15.96,0,26.61,15.96,29.27,31.93,5.32-26.61,15.96-37.25,42.57-37.25,5.32,0,18.62,0,18.62,7.98,0,2.66-10.64,29.27-13.3,29.27s-18.62-5.32-31.93-5.32c-2.66,0-5.32,0-5.32,2.66-7.98,26.61-7.98,37.25-7.98,47.89,0,2.66,0,7.98-5.32,7.98s-13.3-2.66-15.96-5.32c-5.32-2.66,2.66-18.62-10.64-50.55-2.66-7.98-5.32-13.3-10.64-13.3-2.66,0-10.64,2.66-13.3,2.66,0-2.66-2.66-2.66-2.66-5.32Z"></path>
    <path d="M1146.91,446.24c0-31.93,42.57-45.23,90.46-45.23,7.98,0,23.94,0,23.94,10.64,7.98,2.66,7.98,5.32,7.98,10.64,0,21.28-58.53,37.25-85.14,37.25-2.66,0-10.64,0-15.96-2.66,7.98,7.98,26.61,10.64,42.57,10.64,39.91,0,58.53-13.3,63.85-13.3,2.66,0,2.66,2.66,2.66,5.32,0,23.94-63.85,31.93-82.48,31.93s-42.57-5.32-42.57-29.27q0-2.66,2.66-5.32c-7.98-2.66-7.98-5.32-7.98-10.64ZM1248.01,422.3c-37.25,0-69.17,7.98-82.48,26.61,31.93-2.66,71.83-13.3,82.48-26.61Z"></path>
  </g>
</svg>