<svg xmlns="http://www.w3.org/2000/svg" viewBox="0 0 48 52" fill="none" aria-hidden="true">
  <rect x="4" y="0" width="40" height="40" rx="10" fill="#fff"/>
  <path d="M24 30.5c-5.2-4.2-7.8-8.2-7.8-12.4a4.2 4.2 0 0 1 7.8-2.2 4.2 4.2 0 0 1 7.8 2.2c0 4.2-2.6 8.2-7.8 12.4z" stroke="#22c55e" stroke-width="1.8" stroke-linejoin="round"/>
  <path d="M19.2 12.8c0-1.6 1.1-2.7 2-3.3.9.6 2 1.7 2 3.3" stroke="#22c55e" stroke-width="1.8" stroke-linecap="round"/>
  <path d="M24.8 12.8c0-1.6 1.1-2.7 2-3.3.9.6 2 1.7 2 3.3" stroke="#22c55e" stroke-width="1.8" stroke-linecap="round"/>
  <text x="24" y="49" text-anchor="middle" font-family="system-ui, -apple-system, 'Segoe UI', sans-serif" font-size="8.5" font-weight="600" fill="#1f2937">helt.ty</text>
</svg>
