<?xml version="1.0" encoding="UTF-8"?>
<svg id="Layer_2" data-name="Layer 2" xmlns="http://www.w3.org/2000/svg" viewBox="0 0 400 400">
  <defs>
    <style>
      .cls-1 {
        fill: #202020;
      }
    </style>
  </defs>
  <path d="M269.1,243.47c-1.75-8.2-2.36-16.87-1.94-25.25,1.15-23.27,10.36-43.83,22.85-63.13.94-1.46,1.88-4.42,1.2-5.11-1.27-1.31-3.9-2.29-5.64-1.91-2.42.52-5.05,1.96-6.71,3.81-4.33,4.81-8.71,9.73-12.14,15.18-11.53,18.3-22.66,36.85-34.78,56.69.37-6.67.31-12.28,1.06-17.77,2.98-21.77,6.21-43.51,9.36-65.26,1.03-7.12.25-8.25-6.9-7.67-2.09.17-4.7,1.76-5.89,3.5-2.41,3.54-4.22,7.55-5.93,11.51-8.77,20.32-17.01,40.89-26.25,61-10.59,23.06-22.94,45.18-40.86,63.57-14.28,14.65-30.8,24.18-52.27,22.43-20.51-1.67-35.67-17.53-35.47-38.08.14-15.12,6.02-28.14,15.83-39.48,8.47-9.8,18.57-16.05,32.12-15.2.88.06,1.58-.03,2.13-.23.37-1.07.96-1.87,1.69-2.41.05-.77-.09-1.67-.37-2.64-1.29-4.53-5.32-7.47-10.98-7.91-7.28-.56-13.9,1.54-19.84,5.53-17.17,11.53-28.71,27.31-33.4,47.46-6.41,27.58,10.97,53.81,38.35,58.42,16.7,2.81,32.48-.22,47.14-8.76,13.43-7.83,24.54-18.29,34.01-30.51,20.96-27.07,34.75-57.8,45.66-89.98.51-1.5,1.08-2.97,1.62-4.46.42,4.48-.11,8.72-.54,12.97-2.23,21.86-4.53,43.72-6.57,65.61-.32,3.39.25,6.96,1,10.31.27,1.23,2.17,2.77,3.46,2.91,1.17.13,2.81-1.22,3.72-2.35,1.24-1.53,2-3.44,2.92-5.21,9.45-18.17,18.85-36.36,28.36-54.49,1.22-2.32,3.03-4.34,4.57-6.49.24,2.77-.45,4.95-1.1,7.14-4.3,14.34-6.17,28.96-4.82,43.92,1.93,21.46,18.06,34.48,38.3,30.7,2.34-.44,4.45-2.13,6.66-3.24-17.98-3.38-26.33-9.73-29.61-25.1v-.02Z"/>
  <path class="cls-1" d="M349.28,200c.34-44.36-28.52-85.83-70.2-100.85-69.97-25.57-144.4,26.49-144.4,100.86-.21,74.1,74.39,126.62,144.42,100.88,41.68-15.04,70.53-56.52,70.19-100.88h0ZM350.38,200c.57,44.83-28.16,87.88-69.72,104.67-74.42,30.99-156.94-24.07-156.98-104.67.03-80.6,82.57-135.66,156.98-104.67,41.55,16.8,70.3,59.84,69.72,104.67h0Z"/>
</svg>