<?xml version="1.0" encoding="UTF-8"?>
<svg id="Layer_1" data-name="Layer 1" xmlns="http://www.w3.org/2000/svg" viewBox="0 0 232.45 40.63">
  <defs>
    <style>
      .cls-1 {
        fill: currentColor;
      }
    </style>
  </defs>
  <polygon class="cls-1" points="56.52 30.19 46.08 40.63 37.05 31.6 28.2 40.45 19.35 31.6 10.38 40.57 0 30.19 28.26 1.93 56.52 30.19"/>
  <g>
    <path class="cls-1" d="M116.63,20.6v13.24h-6.71v-12.21c0-3.74-1.68-5.46-4.39-5.46-3.01,0-5.12,1.94-5.12,6.06v11.61h-6.71v-12.21c0-3.74-1.59-5.46-4.39-5.46-2.97,0-5.07,1.94-5.07,6.06v11.61h-6.71V10.71h6.41v2.67c1.72-1.98,4.3-3.01,7.27-3.01,3.23,0,5.98,1.25,7.61,3.78,1.85-2.36,4.86-3.78,8.34-3.78,5.5,0,9.46,3.18,9.46,10.23Z"/>
    <path class="cls-1" d="M142.86,24.17h-17.5c.64,2.88,3.1,4.64,6.62,4.64,2.45,0,4.21-.73,5.8-2.24l3.57,3.87c-2.15,2.45-5.38,3.74-9.55,3.74-8,0-13.2-5.03-13.2-11.91s5.29-11.91,12.34-11.91,12.04,4.56,12.04,12c0,.52-.09,1.25-.13,1.81ZM125.27,20.25h11.39c-.47-2.92-2.67-4.82-5.68-4.82s-5.25,1.85-5.72,4.82Z"/>
    <path class="cls-1" d="M159.8,32.72c-1.38.99-3.4,1.46-5.46,1.46-5.46,0-8.64-2.79-8.64-8.3v-9.5h-3.57v-5.16h3.57v-5.63h6.71v5.63h5.76v5.16h-5.76v9.42c0,1.98,1.08,3.05,2.88,3.05.99,0,1.98-.3,2.71-.86l1.81,4.73Z"/>
    <path class="cls-1" d="M175.36,10.36v6.19c-.56-.04-.99-.09-1.5-.09-3.7,0-6.15,2.02-6.15,6.45v10.92h-6.71V10.71h6.41v3.05c1.63-2.24,4.39-3.4,7.96-3.4Z"/>
    <path class="cls-1" d="M175.97,3.74c0-2.11,1.68-3.74,4.17-3.74s4.17,1.55,4.17,3.61c0,2.24-1.68,3.87-4.17,3.87s-4.17-1.63-4.17-3.74ZM176.78,10.71h6.71v23.13h-6.71V10.71Z"/>
    <path class="cls-1" d="M185.43,22.27c0-6.97,5.38-11.91,12.9-11.91,4.86,0,8.69,2.11,10.36,5.89l-5.2,2.79c-1.25-2.19-3.1-3.18-5.2-3.18-3.4,0-6.06,2.36-6.06,6.41s2.67,6.41,6.06,6.41c2.11,0,3.96-.95,5.2-3.18l5.2,2.84c-1.68,3.7-5.5,5.85-10.36,5.85-7.52,0-12.9-4.94-12.9-11.91Z"/>
    <path class="cls-1" d="M232.45,20.64v13.2h-6.28v-2.88c-1.25,2.11-3.66,3.22-7.05,3.22-5.42,0-8.64-3.01-8.64-7.01s2.88-6.92,9.93-6.92h5.33c0-2.88-1.72-4.56-5.33-4.56-2.45,0-4.99.82-6.66,2.15l-2.41-4.69c2.54-1.81,6.28-2.79,9.98-2.79,7.05,0,11.14,3.27,11.14,10.28ZM225.74,26.53v-2.36h-4.6c-3.14,0-4.13,1.16-4.13,2.71,0,1.68,1.42,2.79,3.78,2.79,2.24,0,4.17-1.03,4.94-3.14Z"/>
  </g>
</svg>