<?xml version="1.0" encoding="UTF-8"?>
<svg id="Layer_1" data-name="Layer 1" xmlns="http://www.w3.org/2000/svg" viewBox="0 0 292.4 64.27">
  <defs>
    <style>
      .cls-1 {
        fill: #e87a6a;
      }
    </style>
  </defs>
  <path class="cls-1" d="M46.9,35.3c13.9.82-.76,12.31-7.71,11.82,2.39,1.05,2.73,2.71,1.36,4.47-6.82,8.77-22.71-.35-29.12,7.36-5.72,6.88-15.31,5.68-7.17-2.62,8-8.86,32.33-28.8,30.03-31.1-2.96-2.96-22.1,24.09-26.3,18.03-2.53-4.33.18-11.42,2-15.52,24.91-57.06,84.96-8.17,36.91,7.55h0Z"/>
  <g>
    <path class="cls-1" d="M107.67,42.77c0,5.51-4.37,8.48-10.53,8.48-5.72,0-9.4-2.59-11.07-4.1l3.46-5.08c2.27,2.16,5.13,3.24,7.78,3.24,2.21,0,3.89-.76,3.89-2.32,0-4.64-14.69-1.78-14.69-11.66,0-4.97,3.73-7.83,9.83-7.83,5.35,0,8.86,2.16,11.23,4.1l-3.46,5.02c-2.86-2.38-5.67-3.19-7.88-3.19s-3.24.7-3.24,1.78c0,3.94,14.69,1.46,14.69,11.56h-.01Z"/>
    <path class="cls-1" d="M123.43,51.31c-8.86,0-13.55-4.48-13.55-12.8V13.13h6.48v10.8h6.16v5.94h-6.16v8.59c0,4.91,2,6.91,7.07,6.91v5.94Z"/>
    <path class="cls-1" d="M138.34,23.55c8.37,0,13.93,5.56,13.93,13.88s-5.56,13.99-13.93,13.99-13.99-5.62-13.99-13.99,5.62-13.88,13.99-13.88ZM138.28,45.47c4.54,0,7.51-2.97,7.51-7.99s-2.97-7.99-7.51-7.99-7.45,2.97-7.45,7.99,2.97,7.99,7.45,7.99Z"/>
    <path class="cls-1" d="M168.15,23.44v5.94c-4.32,0-6.91,2.11-6.91,6.43v15.12h-6.48v-15.12c0-8.21,5.18-12.37,13.39-12.37Z"/>
    <path class="cls-1" d="M169.01,23.93h6.75l6.48,18.68,6.48-18.68h6.75l-9.56,27c-2.21,6.32-3.78,13.34-12.85,13.34v-5.94c3.62,0,6.53-4.48,5.24-8.1,0,0-9.29-26.3-9.29-26.3Z"/>
    <path class="cls-1" d="M197.09,13.13h6.48v37.8h-6.48V13.13Z"/>
    <path class="cls-1" d="M233.92,37.54v13.39h-6.48v-2.59c-1.3,1.67-4.05,3.08-7.99,3.08-7.83,0-13.45-5.62-13.45-13.99s5.62-13.88,13.93-13.88,13.99,5.62,13.99,13.99ZM219.98,29.49c-4.54,0-7.51,2.97-7.51,7.99s2.97,7.99,7.51,7.99,7.45-2.97,7.45-7.99-2.97-7.99-7.45-7.99Z"/>
    <path class="cls-1" d="M262,34.84v16.09h-6.48v-15.93c0-3.83-2.81-5.56-5.94-5.56s-5.94,1.73-5.94,5.56v15.93h-6.48v-16.09c0-4.7,3.51-11.39,12.42-11.39s12.42,6.7,12.42,11.39Z"/>
    <path class="cls-1" d="M292.4,13.13v24.35c0,8.69-6.21,13.88-14.15,13.88s-13.77-5.56-13.77-13.88,5.62-13.99,13.45-13.99c3.89,0,6.7,1.4,7.99,3.08v-13.45h6.48,0ZM278.41,45.42c4.54,0,7.51-2.97,7.51-7.99s-2.97-7.99-7.51-7.99-7.45,2.97-7.45,7.99,2.97,7.99,7.45,7.99Z"/>
  </g>
</svg>
