<svg id="Logo" xmlns="http://www.w3.org/2000/svg" width="1748" height="936" viewBox="0 0 1748 936">
  <defs>
    <style>
      .cls-1 {
        fill: #a80004;
      }

      .cls-1, .cls-2, .cls-3, .cls-4 {
        fill-rule: evenodd;
      }

      .cls-2 {
        fill: #1b32ee;
      }

      .cls-3 {
        fill: #607dc6;
      }

      .cls-4 {
        fill: #e63333;
      }
    </style>
  </defs>
  <path id="U" class="cls-1" d="M157,317H281.977v18.515l-3.6.2q-20.4,1.587-24.293,6.934t-3.9,31.887v127.41q0,53.045,14.945,75.3t50.63,22.251q37.991,0,55.254-23.547t17.262-75.6V374.533q0-26.54-3.875-31.887t-24.339-6.934l-3.577-.2V317H448.88v18.515l-3.577.2q-20.07,1.587-23.843,6.934t-3.776,31.887V495.571q0,63.508-26.711,93.369Q364.261,619,307.72,619q-118.931,0-118.93-119.447V375.925q0-26.673-3.974-32.249t-24.041-6.77l-3.776-.4V317Z"/>
  <path id="N" class="cls-2" d="M946.013,617.253L782.525,393.766V555.422q0,26.589,3.983,32.05t24.294,6.844l3.582,0.2v18.549H721.591V594.514l3.782-.2q20.113-1.385,24.095-6.844t3.983-32.05V375.516q0-26.589-3.882-31.947t-24.2-6.947l-3.782-.2V317.874h73.85l162.32,222.881V375.516q0-26.589-3.858-31.947t-24.245-6.947l-3.76-.2V317.874h92.8v18.549l-3.61.2q-20.25,1.59-24.249,6.947t-4.009,31.947V617.253H946.013Z"/>
  <path id="B" class="cls-3" d="M693.411,459.8q41.2,8.175,61.7,28.105t20.5,51.429q0,36.681-24.281,55.118T678.285,612.89H540.364V594.351l3.78-.2q20.1-1.385,24.081-6.841t3.981-32.031v-179.8q0-26.574-3.879-31.928t-24.183-6.943l-3.78-.2V317.873H677.688q42.791,0,64.186,16.345t21.4,49.236q0,25.518-17.415,44.652T693.411,459.8Zm-62.295-7.775h12.143q29.654,0,44.381-14.876t14.729-44.628q0-27.555-14.729-41.335t-44.182-13.778H631.116V452.026Zm0,19.535v83.721q0,22.529,5.375,29t23.884,6.479q23.682,0,38.013-15.149t14.329-40.067q0-28.706-19.205-46.346t-50.054-17.641H631.116Z"/>
  <path id="e" class="cls-4" d="M593.51,565.665q-37.952,13.182-73.962,13.184-54.408,0-86.062-30.633T401.83,465.044q0-48.468,28.557-78.619t74.446-30.147q88.676,0,88.677,108.96V469.5H460.688q0,40.33,18.782,60.49t56.341,20.163q25.557,0,57.7-13.957v29.467ZM462.043,451.472h75.123v-6.785q0-38.582-7.766-54.481t-26.785-15.9q-20.193,0-30.382,19.292T462.043,451.472Z"/>
  <path id="University_of_economics" data-name="University of economics" class="cls-4" d="M1095.37,387.466h16.48v2.442l-0.47.027c-1.8.14-2.86,0.444-3.21,0.915s-0.51,1.874-.51,4.208v16.814c0,4.666.65,7.979,1.97,9.936s3.54,2.937,6.67,2.937q5.025,0,7.29-3.107,2.28-3.106,2.28-9.977v-16.6q0-3.5-.51-4.208t-3.21-.915l-0.47-.027v-2.442h12.18v2.442l-0.47.027c-1.76.14-2.81,0.444-3.14,0.915s-0.5,1.874-.5,4.208V411.03q0,8.382-3.52,12.322-3.525,3.968-10.99,3.967-15.675,0-15.68-15.763V395.243c0-2.349-.18-3.766-0.52-4.256s-1.41-.789-3.17-0.894l-0.5-.053v-2.574Zm52.35,15.473a12.868,12.868,0,0,1,4.25-4.57,10.432,10.432,0,0,1,5.61-1.524,7.865,7.865,0,0,1,6.08,2.391,9.652,9.652,0,0,1,2.17,6.7v12.795q0,3.519.54,4.241t3.18,0.908l0.5,0.027v2.442h-16.17v-2.442l0.47-.027c1.78-.123,2.85-0.425,3.2-0.908s0.52-1.9.52-4.241v-11.9c0-2.049-.23-3.437-0.72-4.163a3.075,3.075,0,0,0-2.76-1.091,6.524,6.524,0,0,0-3.47,1.064,13.329,13.329,0,0,0-3.4,3.219v12.873q0,3.519.54,4.241c0.35,0.483,1.41.785,3.16,0.908l0.5,0.027v2.442h-16.15v-2.442l0.5-.027c1.77-.123,2.82-0.425,3.17-0.908s0.53-1.9.53-4.241V405.12c0-2.348-.18-3.762-0.53-4.243s-1.4-.783-3.17-0.906l-0.5-.027V397.5h11.95v5.437Zm35.09-5.437v21.227q0,3.519.54,4.241c0.35,0.483,1.41.785,3.16,0.908l0.5,0.027v2.442h-16.15v-2.442l0.5-.027c1.77-.123,2.82-0.425,3.17-0.908s0.52-1.9.52-4.241V405.12c0-2.348-.17-3.762-0.52-4.243s-1.4-.783-3.17-0.906l-0.5-.027V397.5h11.95Zm-7.76-4.862v-7.774h7.76v7.774h-7.76Zm28.72,34.021-10.35-21.434a21.175,21.175,0,0,0-2.63-4.35,4.434,4.434,0,0,0-2.79-.906l-0.5-.027V397.5h16.17v2.442l-0.5.027q-2.775.184-2.85,1.05c-0.04.4,0.52,1.805,1.67,4.2l5.73,11.926,5.88-11.926a15.821,15.821,0,0,0,1.76-4.361c0-.474-0.94-0.77-2.8-0.893l-0.48-.027V397.5h10.65v2.442l-0.5.027a4.556,4.556,0,0,0-2.75.8,22.661,22.661,0,0,0-2.65,4.366l-10.67,21.525h-2.39Zm46.57-1.444A30.381,30.381,0,0,1,1240.33,427c-4.9,0-8.79-1.384-11.64-4.151s-4.29-6.524-4.29-11.271a14.853,14.853,0,0,1,3.87-10.652,13.217,13.217,0,0,1,10.07-4.085q12,0,12,14.764v0.577h-17.97c0,3.644.84,6.376,2.54,8.2s4.24,2.732,7.62,2.732a19.845,19.845,0,0,0,7.81-1.892v3.993Zm-17.79-15.473h10.17v-0.92q0-5.228-1.05-7.382a3.713,3.713,0,0,0-3.63-2.155,4.413,4.413,0,0,0-4.11,2.615Q1232.55,404.515,1232.55,409.744Zm33.12-3.993v12.978c0,2.382.2,3.8,0.58,4.255s1.65,0.753,3.8.894l0.5,0.027v2.442h-16.83v-2.442l0.5-.027c1.77-.123,2.82-0.425,3.17-0.908s0.52-1.9.52-4.241V405.12c0-2.348-.17-3.762-0.52-4.243s-1.4-.783-3.17-0.906l-0.5-.027V397.5h11.95v5.437q3.54-6.093,9.17-6.094a7.088,7.088,0,0,1,1.53.21v9.195h-3.57l-0.03-.474a18.152,18.152,0,0,0-.38-3.3,1.385,1.385,0,0,0-1.29-.38Q1267.74,402.1,1265.67,405.751Zm14.96,19.282V417.6h3.54l0.03,0.472c0.1,2.173.43,3.565,0.97,4.178q2.1,2.313,6.24,2.311a4.776,4.776,0,0,0,3.38-1.286,4.176,4.176,0,0,0,1.38-3.179q0-2.916-4.9-4.861l-2.38-.946q-8.265-3.284-8.26-8.853a7.364,7.364,0,0,1,3.18-6.265q3.18-2.326,8.6-2.325a31.706,31.706,0,0,1,8.95,1.366v6.909h-3.56l-0.03-.5-0.05-1.261c0-2.716-1.57-4.073-4.73-4.073a4.942,4.942,0,0,0-3.5,1.341,4.31,4.31,0,0,0-1.44,3.283,3.222,3.222,0,0,0,1.06,2.561,16.009,16.009,0,0,0,4.36,2.194l2.36,0.92q8.04,3.1,8.05,8.3a7.881,7.881,0,0,1-3.41,6.541,13.921,13.921,0,0,1-8.64,2.575A28.834,28.834,0,0,1,1280.63,425.033Zm38-27.531v21.227q0,3.519.54,4.241c0.35,0.483,1.41.785,3.16,0.908l0.5,0.027v2.442h-16.15v-2.442l0.5-.027c1.77-.123,2.82-0.425,3.18-0.908,0.34-.481.52-1.9,0.52-4.241V405.12c0-2.348-.18-3.762-0.52-4.243-0.36-.481-1.41-0.783-3.18-0.906l-0.5-.027V397.5h11.95Zm-7.75-4.862v-7.774h7.75v7.774h-7.75Zm31.94,33.471a13.779,13.779,0,0,1-4.77.893q-4.845,0-7.27-2.405c-1.62-1.6-2.42-4-2.42-7.21V400.1h-3.57v-2.6h3.57V392.64l7.75-1.366V397.5h6.37v2.6h-6.37v17.469c0,2.576.26,4.274,0.76,5.1s1.56,1.237,3.15,1.237a7.473,7.473,0,0,0,2.8-.606v2.812Zm6.79,10.613,9.83-10.691-9.68-20.992a22.342,22.342,0,0,0-2.43-4.322,4.409,4.409,0,0,0-2.65-.748l-0.5-.027V397.5h16.32v2.442h-0.47q-3.18,0-3.18.947a22.008,22.008,0,0,0,1.66,4.206l5.38,11.923,6.29-11.953c1.26-2.364,1.88-3.808,1.88-4.334s-0.89-.789-2.67-0.789h-0.47V397.5h10.34v2.442l-0.5.027a5.317,5.317,0,0,0-2.84.7,25.217,25.217,0,0,0-2.63,4.4l-16.8,31.66h-6.88ZM1412.6,427q-6.96,0-10.96-4.034t-4-11.046q0-7.014,4-11.047t10.96-4.032q6.945,0,10.94,4.032t4,11.047q0,7.014-4,11.046T1412.6,427Zm0-2.758a5.107,5.107,0,0,0,4.79-3.088q1.575-3.087,1.58-9.234,0-6.174-1.58-9.248a5.27,5.27,0,0,0-9.58,0q-1.605,3.075-1.6,9.248,0,6.149,1.6,9.234A5.116,5.116,0,0,0,1412.6,424.246Zm22.02-24.143h-4.04v-2.6h4.04v-1.156q0-6.071,2.6-9.1t7.8-3.034a16.955,16.955,0,0,1,7.44,1.656v6.121h-3.56l-0.03-.474q-0.315-4.808-2.8-4.807a2.969,2.969,0,0,0-2.88,1.537q-0.825,1.536-.82,5.5V397.5h7.29v2.6h-7.29v18.626q0,3.519.54,4.241c0.35,0.483,1.41.785,3.16,0.908l0.5,0.027v2.442h-16.15v-2.442l0.5-.027c1.77-.123,2.82-0.425,3.17-0.908s0.53-1.9.53-4.241V400.1Zm-309.04,90.806H1096v-2.444l0.49-.025c1.77-.12,2.83-0.423,3.17-0.9s0.53-1.886.53-4.22v-23.7q0-3.5-.51-4.208c-0.34-.471-1.41-0.774-3.19-0.915l-0.49-.026V452.03h28.45v6.961h-3.87l-0.06-.5c-0.05-.893-0.07-1.419-0.07-1.576a2.077,2.077,0,0,0-.7-1.891,7.234,7.234,0,0,0-3.13-.421h-8.33v14.764h5.4a20.208,20.208,0,0,0,3.57-.156q0.465-.154.51-2.423l0.05-.494h2.76V474.7h-2.76l-0.05-.474c-0.03-1.382-.28-2.161-0.74-2.338a12.478,12.478,0,0,0-3.34-.262h-5.56v11.661q0,4.363,1.02,4.65a22.829,22.829,0,0,0,4.19.214h3.25c2.61,0,4.07-.129,4.4-0.384s0.55-1.475.69-3.663l0.02-.5h3.88v7.3Zm27.94-.682a30.082,30.082,0,0,1-8.6,1.339q-7.53,0-11.83-4.11-4.32-4.115-4.31-11.311,0-6.88,4.09-10.809t11.26-3.927a34.666,34.666,0,0,1,9.28,1.312v7.436h-3.72l-0.03-.473q-0.21-3.285-.78-3.993a5.453,5.453,0,0,0-4.53-1.84,6.036,6.036,0,0,0-5.51,3q-1.83,2.994-1.83,8.986,0,6.117,2.44,9.194,2.46,3.069,7.33,3.073a18.55,18.55,0,0,0,6.74-1.471v3.6Zm19.23,1.339q-6.975,0-10.96-4.032-4.005-4.033-4-11.048t4-11.045q3.99-4.032,10.96-4.032,6.945,0,10.94,4.032t4,11.045q0,7.013-4,11.048T1172.75,491.566Zm0-2.76a5.091,5.091,0,0,0,4.78-3.087q1.59-3.086,1.59-9.233,0-6.171-1.59-9.246a5.262,5.262,0,0,0-9.57,0q-1.605,3.075-1.6,9.246,0,6.15,1.6,9.233A5.114,5.114,0,0,0,1172.75,488.806Zm29.3-21.3a12.846,12.846,0,0,1,4.24-4.57,10.432,10.432,0,0,1,5.61-1.524,7.865,7.865,0,0,1,6.08,2.391,9.652,9.652,0,0,1,2.17,6.7v12.791q0,3.522.54,4.245t3.18,0.906l0.5,0.025v2.444H1208.2v-2.444l0.48-.025c1.78-.124,2.84-0.426,3.2-0.906,0.34-.483.52-1.9,0.52-4.245v-11.9a8.261,8.261,0,0,0-.72-4.163,3.106,3.106,0,0,0-2.77-1.091,6.524,6.524,0,0,0-3.47,1.064,13.3,13.3,0,0,0-3.39,3.219v12.869c0,2.348.18,3.762,0.53,4.245s1.41,0.782,3.17.906l0.49,0.025v2.444H1190.1v-2.444l0.5-.025c1.76-.124,2.82-0.426,3.17-0.906s0.52-1.9.52-4.245v-13.6c0-2.348-.18-3.762-0.52-4.243s-1.41-.783-3.17-0.906l-0.5-.027v-2.442h11.95V467.5Zm38.94,24.063q-6.975,0-10.97-4.032t-4-11.048q0-7.01,4-11.045t10.97-4.032q6.945,0,10.94,4.032t4,11.045q0,7.013-4,11.048T1240.99,491.566Zm0-2.76a5.1,5.1,0,0,0,4.78-3.087c1.06-2.057,1.58-5.133,1.58-9.233s-0.52-7.2-1.58-9.246a5.27,5.27,0,0,0-9.58,0q-1.605,3.075-1.6,9.246,0,6.15,1.6,9.233A5.137,5.137,0,0,0,1240.99,488.806Zm28.98-21.3a15.976,15.976,0,0,1,4.6-4.57,9.951,9.951,0,0,1,5.31-1.524,7.61,7.61,0,0,1,4.99,1.524,7.394,7.394,0,0,1,2.4,4.57,20.365,20.365,0,0,1,5.17-4.57,10.172,10.172,0,0,1,5.19-1.524q7.605,0,7.61,8.275v13.6c0,2.348.18,3.762,0.53,4.245s1.41,0.782,3.19.906l0.48,0.025v2.444h-15.18v-2.444l0.5-.025c1.45-.089,2.32-0.38,2.61-0.881s0.43-1.922.43-4.27V471.425q0-5.286-3.36-5.288a6.4,6.4,0,0,0-3.6,1.137,11.9,11.9,0,0,0-3.23,3.433v12.582c0,2.331.14,3.751,0.44,4.256s1.17,0.806,2.62.895l0.48,0.025v2.444h-14.52v-2.444l0.49-.025c1.46-.089,2.33-0.377,2.62-0.867s0.42-1.918.42-4.284V471.445a7.66,7.66,0,0,0-.83-3.981,2.814,2.814,0,0,0-2.55-1.327,6.539,6.539,0,0,0-3.64,1.117,11.389,11.389,0,0,0-3.17,3.376v12.659c0,2.331.15,3.751,0.46,4.256s1.16,0.806,2.58.895l0.5,0.025v2.444h-15.17v-2.444l0.49-.025q2.655-.186,3.18-0.906c0.34-.483.52-1.9,0.52-4.245v-13.6c0-2.348-.18-3.762-0.52-4.243s-1.41-.783-3.18-0.906l-0.49-.027v-2.442h11.63V467.5Zm52.2-5.437v21.223c0,2.348.18,3.762,0.53,4.245s1.42,0.782,3.17.906l0.5,0.025v2.444h-16.15v-2.444l0.5-.025c1.77-.124,2.82-0.426,3.17-0.906s0.52-1.9.52-4.245v-13.6c0-2.348-.17-3.762-0.52-4.243s-1.4-.783-3.17-0.906l-0.5-.027v-2.442h11.95Zm-7.76-4.862v-7.775h7.76V457.2h-7.76Zm38.84,33.023a30.03,30.03,0,0,1-8.6,1.339q-7.515,0-11.83-4.11t-4.31-11.311q0-6.88,4.09-10.809t11.27-3.927a34.65,34.65,0,0,1,9.27,1.312v7.436h-3.72l-0.02-.473c-0.14-2.19-.41-3.52-0.79-3.993a5.453,5.453,0,0,0-4.53-1.84,6.02,6.02,0,0,0-5.5,3q-1.845,2.994-1.84,8.986,0,6.117,2.45,9.194t7.32,3.073a18.55,18.55,0,0,0,6.74-1.471v3.6Zm5.53-.632v-7.436h3.54l0.02,0.476c0.1,2.171.43,3.563,0.97,4.174q2.1,2.313,6.24,2.313a4.809,4.809,0,0,0,3.39-1.286,4.177,4.177,0,0,0,1.38-3.179c0-1.944-1.64-3.564-4.9-4.86l-2.39-.949q-8.25-3.276-8.25-8.849a7.364,7.364,0,0,1,3.18-6.265q3.18-2.326,8.59-2.325a31.689,31.689,0,0,1,8.95,1.366v6.909h-3.56l-0.02-.5-0.05-1.261q0-4.074-4.73-4.073a4.966,4.966,0,0,0-3.51,1.341,4.3,4.3,0,0,0-1.43,3.283,3.246,3.246,0,0,0,1.05,2.561,16.114,16.114,0,0,0,4.37,2.194l2.36,0.92q8.04,3.1,8.04,8.3a7.873,7.873,0,0,1-3.4,6.54,13.977,13.977,0,0,1-8.65,2.575A28.782,28.782,0,0,1,1358.78,489.6Zm43.58-12.608V472.1h12.13v4.887h-12.13Zm49.75,14.423-13.72-31.842a34.02,34.02,0,0,0-2.19-4.559,6.549,6.549,0,0,0-2.74-.51l-0.5-.026V452.03h16.83v2.443l-0.5.026-2.03.051a0.934,0.934,0,0,0-1.01,1.074,15.912,15.912,0,0,0,1.33,3.948l8.69,20.487,8.4-20.462c0.18-.453.44-1.19,0.8-2.21a8.688,8.688,0,0,0,.54-1.895c0-.645-0.54-0.966-1.63-0.966l-1.49-.027-0.47-.026V452.03h10.98v2.443l-0.48.026c-0.48.035-.86,0.061-1.12,0.078a2.3,2.3,0,0,0-1.8.681,32.112,32.112,0,0,0-2.08,4.31l-13.2,31.842h-2.61Zm39.9-3.837a15.645,15.645,0,0,1-4.23,3,10.511,10.511,0,0,1-4.42,1,8.856,8.856,0,0,1-6.34-2.376,7.909,7.909,0,0,1-2.52-6,8.16,8.16,0,0,1,3.2-6.75,11.018,11.018,0,0,1,4.53-2.116,35.533,35.533,0,0,1,7.39-.591h1.31v-3.494q0-3.7-.93-5.043c-0.62-.893-1.77-1.341-3.44-1.341a6.024,6.024,0,0,0-4.62,1.656c-0.35.349-.57,1.524-0.68,3.52l-0.02.5h-4.22V463.7a24.63,24.63,0,0,1,10.4-2.286q5.445,0,8.36,2.259a7.724,7.724,0,0,1,2.91,6.489v12.66a13.647,13.647,0,0,0,.5,4.572,1.766,1.766,0,0,0,1.8,1.236,3.168,3.168,0,0,0,.92-0.16l0.34,2.444a12.712,12.712,0,0,1-3.95.657,6.768,6.768,0,0,1-3.7-1A7.4,7.4,0,0,1,1492.01,487.573Zm-1.08-1.918v-9.564h-1.02c-2.58,0-4.53.523-5.83,1.564a5.654,5.654,0,0,0-1.95,4.689,5.3,5.3,0,0,0,1.24,3.691,4.285,4.285,0,0,0,3.34,1.378,5.619,5.619,0,0,0,2.23-.443A7.012,7.012,0,0,0,1490.93,485.655Zm25.05-15.34v12.974c0,2.384.19,3.8,0.58,4.256s1.65,0.753,3.8.895l0.5,0.025v2.444h-16.83v-2.444l0.5-.025c1.76-.124,2.82-0.426,3.17-0.906s0.52-1.9.52-4.245v-13.6c0-2.348-.17-3.762-0.52-4.243s-1.41-.783-3.17-0.906l-0.5-.027v-2.442h11.95V467.5q3.54-6.093,9.17-6.094a7.061,7.061,0,0,1,1.52.209v9.2h-3.56l-0.03-.474a19.245,19.245,0,0,0-.38-3.3,1.4,1.4,0,0,0-1.3-.38Q1518.055,466.663,1515.98,470.315Zm24.82-2.812a12.846,12.846,0,0,1,4.24-4.57,10.481,10.481,0,0,1,5.61-1.524,7.851,7.851,0,0,1,6.08,2.391,9.656,9.656,0,0,1,2.18,6.7v12.791q0,3.522.54,4.245,0.525,0.72,3.18.906l0.5,0.025v2.444h-16.17v-2.444l0.47-.025c1.78-.124,2.85-0.426,3.2-0.906s0.52-1.9.52-4.245v-11.9a8.261,8.261,0,0,0-.72-4.163,3.075,3.075,0,0,0-2.76-1.091,6.583,6.583,0,0,0-3.48,1.064,13.469,13.469,0,0,0-3.39,3.219v12.869c0,2.348.18,3.762,0.53,4.245s1.41,0.782,3.17.906l0.49,0.025v2.444h-16.14v-2.444l0.5-.025c1.76-.124,2.82-0.426,3.17-0.906s0.52-1.9.52-4.245v-13.6c0-2.348-.17-3.762-0.52-4.243s-1.41-.783-3.17-0.906l-0.5-.027v-2.442h11.95V467.5Zm40.96,20.07a15.684,15.684,0,0,1-4.24,3,10.434,10.434,0,0,1-4.41,1,8.856,8.856,0,0,1-6.34-2.376,7.909,7.909,0,0,1-2.52-6,8.16,8.16,0,0,1,3.2-6.75,11.018,11.018,0,0,1,4.53-2.116,35.533,35.533,0,0,1,7.39-.591h1.31v-3.494q0-3.7-.93-5.043c-0.62-.893-1.77-1.341-3.44-1.341a6.024,6.024,0,0,0-4.62,1.656c-0.35.349-.58,1.524-0.68,3.52l-0.02.5h-4.22V463.7a24.63,24.63,0,0,1,10.4-2.286q5.445,0,8.36,2.259a7.724,7.724,0,0,1,2.91,6.489v12.66a14,14,0,0,0,.49,4.572,1.786,1.786,0,0,0,1.81,1.236,3.223,3.223,0,0,0,.92-0.16l0.34,2.444a12.712,12.712,0,0,1-3.95.657,6.768,6.768,0,0,1-3.7-1A7.4,7.4,0,0,1,1581.76,487.573Zm-1.08-1.918v-9.564h-1.02q-3.885,0-5.83,1.564a5.654,5.654,0,0,0-1.95,4.689,5.3,5.3,0,0,0,1.24,3.691,4.285,4.285,0,0,0,3.34,1.378,5.619,5.619,0,0,0,2.23-.443A7.012,7.012,0,0,0,1580.68,485.655Z"/>
  <path id="Business_Network" data-name="Business Network" class="cls-3" d="M1115.53,536.3q5.415,1.071,8.12,3.681a8.967,8.967,0,0,1,2.7,6.741q0,4.806-3.2,7.224t-9.62,2.417h-18.16v-2.431l0.5-.025c1.76-.12,2.82-0.42,3.17-0.9s0.52-1.876.52-4.2V525.252q0-3.486-.51-4.186t-3.18-.908l-0.5-.029V517.7h18.09q5.625,0,8.45,2.144,2.8,2.142,2.81,6.451a8.4,8.4,0,0,1-2.29,5.854A16.916,16.916,0,0,1,1115.53,536.3Zm-8.21-1.021h1.6q3.9,0,5.84-1.95t1.95-5.846a7.032,7.032,0,0,0-1.95-5.419q-1.935-1.8-5.81-1.806h-1.63v15.021Zm0,2.562v10.972c0,1.968.24,3.236,0.71,3.8s1.52,0.848,3.14.848a6.59,6.59,0,0,0,5.01-1.985,7.3,7.3,0,0,0,1.89-5.25,7.87,7.87,0,0,0-2.53-6.076,9.393,9.393,0,0,0-6.59-2.31h-1.63Zm43.51,18.522v-5.409a12.6,12.6,0,0,1-4.22,4.547,10.524,10.524,0,0,1-5.63,1.515,7.822,7.822,0,0,1-6.06-2.4,9.452,9.452,0,0,1-2.2-6.638V535.257c0-2.335-.17-3.741-0.53-4.218-0.34-.481-1.4-0.781-3.16-0.9l-0.5-.025v-2.43h11.95v19.412a7.816,7.816,0,0,0,.78,4.141,3.189,3.189,0,0,0,2.81,1.137,6.517,6.517,0,0,0,3.55-1.074,11.784,11.784,0,0,0,3.21-3.186V535.257c0-2.335-.17-3.741-0.52-4.218s-1.42-.781-3.2-0.9l-0.47-.025v-2.43h11.95v21.108c0,2.335.18,3.741,0.53,4.222s1.41,0.777,3.17.9l0.49,0.025v2.431h-11.95Zm15.7-1.307v-7.394h3.54l0.03,0.473q0.15,3.237.96,4.151,2.115,2.3,6.25,2.3a4.8,4.8,0,0,0,3.38-1.279,4.145,4.145,0,0,0,1.38-3.162q0-2.9-4.9-4.833l-2.38-.939q-8.265-3.27-8.26-8.8a7.313,7.313,0,0,1,3.18-6.232q3.18-2.31,8.6-2.314a31.947,31.947,0,0,1,8.95,1.361v6.871h-3.56l-0.03-.5-0.05-1.255c0-2.7-1.57-4.048-4.73-4.048a4.96,4.96,0,0,0-3.5,1.332,4.283,4.283,0,0,0-1.44,3.267,3.2,3.2,0,0,0,1.06,2.547,15.97,15.97,0,0,0,4.36,2.18l2.36,0.915q8.055,3.084,8.05,8.256a7.824,7.824,0,0,1-3.41,6.5,14,14,0,0,1-8.65,2.561A28.954,28.954,0,0,1,1166.53,555.058Zm38-27.379v21.108q0,3.5.54,4.222c0.35,0.476,1.41.777,3.16,0.9l0.5,0.025v2.431h-16.15v-2.431l0.5-.025c1.77-.123,2.82-0.424,3.17-0.9s0.53-1.887.53-4.222v-13.53c0-2.335-.18-3.741-0.53-4.218s-1.4-.781-3.17-0.9l-0.5-.025v-2.43h11.95Zm-7.75-4.833v-7.733h7.75v7.733h-7.75Zm25.21,10.242a12.741,12.741,0,0,1,4.25-4.547,10.471,10.471,0,0,1,5.61-1.516,7.9,7.9,0,0,1,6.08,2.378,9.575,9.575,0,0,1,2.17,6.663v12.721q0,3.5.54,4.222t3.18,0.9l0.5,0.025v2.431h-16.17v-2.431l0.47-.025c1.78-.123,2.85-0.424,3.2-0.9s0.52-1.887.52-4.222V536.952a8.189,8.189,0,0,0-.72-4.14,3.087,3.087,0,0,0-2.76-1.084,6.593,6.593,0,0,0-3.48,1.059,13.51,13.51,0,0,0-3.39,3.2v12.8c0,2.335.18,3.741,0.53,4.222s1.41,0.777,3.17.9l0.5,0.025v2.431h-16.15v-2.431l0.5-.025c1.76-.123,2.82-0.424,3.17-0.9s0.52-1.887.52-4.222v-13.53c0-2.335-.17-3.741-0.52-4.218s-1.41-.781-3.17-0.9l-0.5-.025v-2.43h11.95v5.409Zm49.93,22.153a30.517,30.517,0,0,1-10.01,1.777q-7.365,0-11.65-4.13t-4.29-11.205a14.733,14.733,0,0,1,3.87-10.6,13.3,13.3,0,0,1,10.08-4.063q12,0,12,14.683v0.575h-17.98q0,5.438,2.54,8.15t7.63,2.717a19.954,19.954,0,0,0,7.81-1.88v3.971Zm-17.8-15.388h10.17v-0.912q0-5.2-1.05-7.341a3.705,3.705,0,0,0-3.62-2.144,4.415,4.415,0,0,0-4.12,2.6Q1254.12,534.659,1254.12,539.853Zm23.28,15.205v-7.394h3.54l0.03,0.473q0.15,3.237.96,4.151,2.115,2.3,6.25,2.3a4.8,4.8,0,0,0,3.38-1.279,4.145,4.145,0,0,0,1.38-3.162q0-2.9-4.9-4.833l-2.39-.939q-8.25-3.27-8.25-8.8a7.313,7.313,0,0,1,3.18-6.232q3.18-2.31,8.6-2.314a31.947,31.947,0,0,1,8.95,1.361v6.871h-3.56l-0.03-.5-0.05-1.255q0-4.049-4.73-4.048a4.985,4.985,0,0,0-3.51,1.332,4.308,4.308,0,0,0-1.43,3.267,3.2,3.2,0,0,0,1.06,2.547,15.97,15.97,0,0,0,4.36,2.18l2.36,0.915q8.04,3.084,8.05,8.256a7.824,7.824,0,0,1-3.41,6.5,14.015,14.015,0,0,1-8.65,2.561A28.954,28.954,0,0,1,1277.4,555.058Zm28.15,0v-7.394h3.54l0.02,0.473c0.1,2.158.43,3.543,0.97,4.151q2.115,2.3,6.24,2.3a4.809,4.809,0,0,0,3.39-1.279,4.145,4.145,0,0,0,1.38-3.162q0-2.9-4.9-4.833l-2.39-.939q-8.25-3.27-8.25-8.8a7.313,7.313,0,0,1,3.18-6.232q3.18-2.31,8.6-2.314a32,32,0,0,1,8.95,1.361v6.871h-3.56l-0.03-.5-0.05-1.255q0-4.049-4.73-4.048a4.985,4.985,0,0,0-3.51,1.332,4.308,4.308,0,0,0-1.43,3.267,3.2,3.2,0,0,0,1.06,2.547,15.97,15.97,0,0,0,4.36,2.18l2.36,0.915q8.04,3.084,8.05,8.256a7.824,7.824,0,0,1-3.41,6.5,14.015,14.015,0,0,1-8.65,2.561A28.954,28.954,0,0,1,1305.55,555.058Zm72.62,1.854-21.51-29.272v21.175c0,2.321.17,3.72,0.52,4.2s1.42,0.777,3.2.9l0.47,0.025v2.431h-12.21v-2.431l0.49-.025q2.655-.18,3.18-0.9c0.35-.477.52-1.876,0.52-4.2V525.252q0-3.486-.51-4.186c-0.34-.467-1.4-0.771-3.19-0.908l-0.49-.029V517.7h9.72l21.36,29.2V525.252q0-3.486-.51-4.186c-0.33-.467-1.4-0.771-3.19-0.908l-0.49-.029V517.7h12.21v2.43l-0.47.029c-1.78.137-2.84,0.441-3.19,0.908s-0.53,1.862-.53,4.186v31.66h-5.38Zm39.22-1.671a30.619,30.619,0,0,1-10.02,1.777q-7.365,0-11.65-4.13t-4.28-11.205a14.726,14.726,0,0,1,3.86-10.6,13.3,13.3,0,0,1,10.08-4.063q12,0,12.01,14.683v0.575H1399.4q0,5.438,2.55,8.15c1.69,1.813,4.24,2.717,7.62,2.717a20,20,0,0,0,7.82-1.88v3.971Zm-17.8-15.388h10.17v-0.912q0-5.2-1.05-7.341a3.71,3.71,0,0,0-3.63-2.144,4.411,4.411,0,0,0-4.11,2.6Q1399.59,534.659,1399.59,539.853Zm39.87,16.275a13.894,13.894,0,0,1-4.78.89q-4.845,0-7.27-2.391t-2.42-7.172v-17.19h-3.57v-2.586h3.57v-4.833l7.76-1.356v6.189h6.37v2.586h-6.37v17.374q0,3.842.75,5.069t3.15,1.226a7.548,7.548,0,0,0,2.81-.6v2.8Zm14.05,0.551-7.53-21.4a17.888,17.888,0,0,0-2.04-4.271,3.934,3.934,0,0,0-2.62-.876l-0.5-.025v-2.43h15.05v2.43h-0.5c-2.05,0-3.07.34-3.07,1.018a15.352,15.352,0,0,0,1.02,4.048l4.02,11.655,7.78-18.992h2.81l7.5,18.992,4.26-11.467c0.05-.138.24-0.619,0.55-1.438a9.384,9.384,0,0,0,.79-2.614c0-.8-1.01-1.2-3.02-1.2h-0.5v-2.43h10.54v2.43l-0.47.025a4.5,4.5,0,0,0-2.91.876,15.4,15.4,0,0,0-2,4.219l-7.96,21.45h-2.4l-7.84-20.168-8.41,20.168h-2.55Zm51.13,0.339q-6.975,0-10.97-4.009t-4-10.987q0-6.973,4-10.983t10.97-4.014q6.945,0,10.94,4.014t4,10.983q0,6.973-4,10.987T1504.64,557.018Zm0-2.745a5.092,5.092,0,0,0,4.78-3.07q1.59-3.067,1.59-9.181,0-6.136-1.59-9.2a5.282,5.282,0,0,0-9.58,0c-1.06,2.039-1.6,5.105-1.6,9.2,0,4.076.54,7.136,1.6,9.181A5.138,5.138,0,0,0,1504.64,554.273Zm29.3-18.391v12.905c0,2.371.19,3.78,0.58,4.232s1.65,0.749,3.8.89l0.5,0.025v2.431h-16.83v-2.431l0.5-.025c1.76-.123,2.82-0.424,3.17-0.9s0.52-1.887.52-4.222v-13.53c0-2.335-.17-3.741-0.52-4.218s-1.41-.781-3.17-0.9l-0.5-.025v-2.43h11.95v5.409q3.54-6.063,9.17-6.063a7.109,7.109,0,0,1,1.53.212v9.143h-3.57l-0.03-.47a17.861,17.861,0,0,0-.38-3.278,1.384,1.384,0,0,0-1.29-.382Q1536.01,532.25,1533.94,535.882Zm24.82,6.638v6.267c0,2.317.15,3.731,0.46,4.232s1.17,0.8,2.61.89l0.47,0.025v2.431h-15.49v-2.431l0.5-.025c1.76-.123,2.82-0.424,3.17-0.9s0.52-1.887.52-4.222v-26.1c0-2.321-.17-3.727-0.52-4.211s-1.41-.781-3.17-0.884l-0.5-.052v-2.431h11.95V540.9h1.31l5.85-5.931q3.54-3.291,3.54-4.257c0-.4-0.77-0.6-2.29-0.6h-0.49v-2.43h11.27v2.43l-0.47.025a8.039,8.039,0,0,0-3.35.753,51.627,51.627,0,0,0-5.12,4.345l-3.43,3.525,7.7,10.058a31.3,31.3,0,0,0,3.91,4.236,5.719,5.719,0,0,0,2.99.858l0.49,0.025v2.431h-11.56l-9.14-13.845h-1.21Z"/>
  <path id="Line" class="cls-3" d="M1070.92,561.393h-11.26V376.349h11.26V561.393Z"/>
</svg>
